<svg xmlns="http://www.w3.org/2000/svg" xmlns:xlink="http://www.w3.org/1999/xlink" version="1.1" id="Layer_1" x="0px" y="0px" width="100%" viewBox="0 0 100 100" enable-background="new 0 0 100 100" xml:space="preserve">
<path fill="#FEFEFE" opacity="1.000000" stroke="none" d=" M63.000000,101.000000   C42.000004,101.000000 21.500008,101.000000 1.000008,101.000000   C1.000005,67.666679 1.000005,34.333351 1.000003,1.000022   C34.333317,1.000014 67.666634,1.000014 100.999969,1.000007   C100.999977,34.333313 100.999977,67.666626 100.999985,100.999969   C88.500000,101.000000 76.000000,101.000000 63.000000,101.000000  M71.446815,76.113029   C77.563614,76.494934 83.362587,76.397728 87.182602,70.229767   C93.085243,60.699085 93.673752,51.050488 87.579575,41.637390   C83.462395,35.277969 79.294434,29.352634 81.186531,21.114382   C81.943802,17.817204 79.398277,17.137802 76.466438,17.159374   C57.987816,17.295341 39.508312,17.309849 21.029144,17.375650   C18.295229,17.385386 15.158588,17.382544 15.162976,21.085714   C15.167427,24.841263 18.345850,24.698599 21.056396,24.706816   C25.751678,24.721050 30.447033,24.710768 36.016609,24.710768   C29.002123,39.689308 22.538292,53.632500 15.944259,67.513847   C12.613476,74.525604 13.463371,76.141548 21.005848,76.145241   C37.491093,76.153297 53.976360,76.128731 71.446815,76.113029  z"/>
<path fill="#0B0B0B" opacity="1.000000" stroke="none" d=" M70.954216,76.115265   C53.976360,76.128731 37.491093,76.153297 21.005848,76.145241   C13.463371,76.141548 12.613476,74.525604 15.944259,67.513847   C22.538292,53.632500 29.002123,39.689308 36.016609,24.710768   C30.447033,24.710768 25.751678,24.721050 21.056396,24.706816   C18.345850,24.698599 15.167427,24.841263 15.162976,21.085714   C15.158588,17.382544 18.295229,17.385386 21.029144,17.375650   C39.508312,17.309849 57.987816,17.295341 76.466438,17.159374   C79.398277,17.137802 81.943802,17.817204 81.186531,21.114382   C79.294434,29.352634 83.462395,35.277969 87.579575,41.637390   C93.673752,51.050488 93.085243,60.699085 87.182602,70.229767   C83.362587,76.397728 77.563614,76.494934 70.954216,76.115265  M79.215508,69.309212   C86.460205,61.600925 87.305763,51.003277 80.710686,41.562744   C76.826576,36.002834 71.887497,31.147825 74.120125,23.594059   C61.983593,22.289621 58.705811,26.646570 62.980408,37.424881   C63.769661,39.414963 64.809570,41.304722 65.708755,43.252338   C66.881638,45.792793 68.839020,48.286789 69.026466,50.903378   C69.471352,57.114048 69.072426,63.385170 69.012581,69.840240   C71.386650,69.840240 74.976883,69.840240 79.215508,69.309212  M41.771141,53.220707   C45.777466,43.906769 49.783794,34.592831 54.058865,24.654108   C50.995159,24.654108 48.815376,24.400547 46.730453,24.736197   C45.129242,24.993973 42.785061,25.585232 42.243992,26.726429   C35.680470,40.569916 29.390434,54.543064 22.988775,68.571304   C33.974255,70.447853 34.170113,70.347610 38.189819,61.146587   C39.249401,58.721230 40.319469,56.300446 41.771141,53.220707  M59.705425,68.766945   C65.989624,57.714771 63.513073,47.610233 55.836193,37.832794   C50.985477,48.028126 46.105217,58.285545 40.978600,69.060776   C47.618534,69.060776 53.244427,69.060776 59.705425,68.766945  z"/>
<path fill="#FAFAFA" opacity="1.000000" stroke="none" d=" M78.891312,69.574722   C74.976883,69.840240 71.386650,69.840240 69.012581,69.840240   C69.072426,63.385170 69.471352,57.114048 69.026466,50.903378   C68.839020,48.286789 66.881638,45.792793 65.708755,43.252338   C64.809570,41.304722 63.769661,39.414963 62.980408,37.424881   C58.705811,26.646570 61.983593,22.289621 74.120125,23.594059   C71.887497,31.147825 76.826576,36.002834 80.710686,41.562744   C87.305763,51.003277 86.460205,61.600925 78.891312,69.574722  z"/>
<path fill="#F9F9F9" opacity="1.000000" stroke="none" d=" M41.577930,53.549133   C40.319469,56.300446 39.249401,58.721230 38.189819,61.146587   C34.170113,70.347610 33.974255,70.447853 22.988775,68.571304   C29.390434,54.543064 35.680470,40.569916 42.243992,26.726429   C42.785061,25.585232 45.129242,24.993973 46.730453,24.736197   C48.815376,24.400547 50.995159,24.654108 54.058865,24.654108   C49.783794,34.592831 45.777466,43.906769 41.577930,53.549133  z"/>
<path fill="#FBFBFB" opacity="1.000000" stroke="none" d=" M59.287872,68.913864   C53.244427,69.060776 47.618534,69.060776 40.978600,69.060776   C46.105217,58.285545 50.985477,48.028126 55.836193,37.832794   C63.513073,47.610233 65.989624,57.714771 59.287872,68.913864  z"/>
</svg>
